<svg xmlns="http://www.w3.org/2000/svg" xmlns:xlink="http://www.w3.org/1999/xlink" width="24" height="24" viewBox="0 0 24 24">
    <defs>
        <path id="a" d="M16.42 17.86a23.35 23.35 0 0 1-3.19 2.794c-.147.106-.254.18-.314.22a.75.75 0 0 1-.832 0 21.313 21.313 0 0 1-1.106-.822 23.35 23.35 0 0 1-2.397-2.192C6.35 15.507 5 13.029 5 10.5a7.5 7.5 0 0 1 15 0c0 2.529-1.352 5.007-3.58 7.36zm-3.333 1.018c.766-.61 1.531-1.298 2.244-2.05 1.99-2.1 3.169-4.263 3.169-6.328a6 6 0 0 0-12 0c0 2.065 1.18 4.227 3.17 6.328a21.866 21.866 0 0 0 2.83 2.501c.182-.134.379-.285.587-.45zM12.5 13.5a3 3 0 1 1 0-6 3 3 0 0 1 0 6zm0-1.5a1.5 1.5 0 1 0 0-3 1.5 1.5 0 0 0 0 3z"/>
    </defs>
    <g fill="none" fill-rule="evenodd">
        <mask id="b" fill="#fff">
            <use xlink:href="#a"/>
        </mask>
        <use fill="#9B9B9B" fill-rule="nonzero" xlink:href="#a"/>
        <g fill="#6D6D6D" mask="url(#b)">
            <path d="M0 0h24v24H0z"/>
        </g>
    </g>
</svg>
